<svg xmlns="http://www.w3.org/2000/svg" width="4562" height="2375" viewBox="0 0 4562 2375" version="1.1"><path d="M 956 85.498 L 956 126.995 757.868 127.248 L 559.736 127.500 537.402 168.500 C 525.118 191.050, 515.052 209.838, 515.034 210.250 C 515.015 210.662, 524 211, 535 211 L 555 211 555 250.500 L 555 290 463.623 290 L 372.247 290 352.747 347.750 L 333.247 405.500 351.124 405.773 L 369 406.045 369 472.970 L 369 539.896 284.750 540.282 C 210.798 540.622, 199.677 540.870, 193.767 542.316 C 158.842 550.856, 132.857 576.426, 124.302 610.671 C 121.626 621.383, 121.882 644.055, 124.801 654.837 C 133.429 686.702, 156.630 710.469, 188.536 720.127 C 193.926 721.758, 199.174 722.348, 211.750 722.735 L 228 723.235 228 1111.617 L 228 1500 166 1500 L 104 1500 104 1531.500 L 104 1563 2305.500 1563 L 4507 1563 4507 1531.500 L 4507 1500 4445 1500 L 4383 1500 4383 1111.605 L 4383 723.210 4398.750 722.745 C 4415.851 722.240, 4421.320 721.142, 4434.005 715.670 C 4445.126 710.872, 4452.462 705.689, 4462.500 695.536 C 4489.080 668.652, 4496.093 627.738, 4480.019 593.327 C 4475.136 582.873, 4471.218 577.168, 4463.061 568.638 C 4451.136 556.168, 4436.020 547.335, 4418.893 542.831 C 4410.615 540.654, 4409.341 540.618, 4326.250 540.255 L 4242 539.886 4242 472.943 L 4242 406 4259.500 406 C 4272.868 406, 4276.985 405.705, 4276.935 404.750 C 4276.899 404.063, 4268.236 378.075, 4257.685 347 L 4238.500 290.500 4146.750 290.245 L 4055 289.990 4055 250.515 L 4055 211.041 4075.272 210.770 L 4095.543 210.500 4072.965 169 L 4050.386 127.500 3852.193 127.248 L 3654 126.995 3654 85.498 L 3654 44 2305 44 L 956 44 956 85.498 M 983 180.500 L 983 290 1053.500 290 L 1124 290 1124 270.500 L 1124 251 1183.500 251 L 1243 251 1243 270.500 L 1243 290 1278 290 L 1313 290 1313 270.500 L 1313 251 1372 251 L 1431 251 1431 270.500 L 1431 290 1475 290 L 1519 290 1519 187.500 L 1519 85 1545 85 L 1571 85 1571 187.500 L 1571 290 1640 290 L 1709 290 1709 187.500 L 1709 85 1735.500 85 L 1762 85 1762 187.500 L 1762 290 1830.500 290 L 1899 290 1899 187.500 L 1899 85 1925.500 85 L 1952 85 1952 187.500 L 1952 290 2020.500 290 L 2089 290 2089 187.500 L 2089 85 2115.500 85 L 2142 85 2142 187.500 L 2142 290 2210.500 290 L 2279 290 2279 187.500 L 2279 85 2305.500 85 L 2332 85 2332 187.500 L 2332 290 2400.500 290 L 2469 290 2469 187.500 L 2469 85 2495.500 85 L 2522 85 2522 187.500 L 2522 290 2590.500 290 L 2659 290 2659 187.500 L 2659 85 2685.500 85 L 2712 85 2712 187.500 L 2712 290 2780.500 290 L 2849 290 2849 187.500 L 2849 85 2875.500 85 L 2902 85 2902 187.500 L 2902 290 2970.500 290 L 3039 290 3039 187.500 L 3039 85 3065.500 85 L 3092 85 3092 187.500 L 3092 290 3135.500 290 L 3179 290 3179 270.500 L 3179 251 3238 251 L 3297 251 3297 270.500 L 3297 290 3332.500 290 L 3368 290 3368 270.500 L 3368 251 3427 251 L 3486 251 3486 270.500 L 3486 290 3556.500 290 L 3627 290 3627 180.500 L 3627 71 2305 71 L 983 71 983 180.500 M 568.250 168.406 C 563.712 176.853, 560 184.042, 560 184.382 C 560 184.722, 649.100 185, 758 185 L 956 185 956 169 L 956 153 766.250 153.024 L 576.500 153.048 568.250 168.406 M 3654 169 L 3654 185 3852.403 185 L 4050.806 185 4042.153 169.019 L 4033.500 153.037 3843.750 153.019 L 3654 153 3654 169 M 582 250.500 L 582 290 769 290 L 956 290 956 250.500 L 956 211 769 211 L 582 211 582 250.500 M 3654 250.500 L 3654 290 3841 290 L 4028 290 4028 250.500 L 4028 211 3841 211 L 3654 211 3654 250.500 M 391.461 318.064 C 390.899 318.972, 371 377.975, 371 378.731 C 371 378.879, 456.275 379, 560.500 379 L 750 379 750 348 L 750 317 571.059 317 C 445.679 317, 391.921 317.318, 391.461 318.064 M 777 908.500 L 777 1500 879.500 1500 L 982 1500 982 1104.115 L 982 708.230 959.507 662.365 C 947.136 637.139, 937.011 616.163, 937.007 615.750 C 937.003 615.337, 1552.825 615, 2305.500 615 C 3058.175 615, 3674 615.174, 3674 615.386 C 3674 615.598, 3663.875 636.355, 3651.500 661.511 L 3629 707.250 3629 1103.625 L 3629 1500 3731 1500 L 3833 1500 3833 908.500 L 3833 317 2305 317 L 777 317 777 908.500 M 3860 348 L 3860 379 4049.941 379 L 4239.881 379 4231.512 354.250 C 4226.909 340.637, 4222.169 326.688, 4220.979 323.250 L 4218.816 317 4039.408 317 L 3860 317 3860 348 M 395 473 L 395 540 572.500 540 L 750 540 750 473 L 750 406 572.500 406 L 395 406 395 473 M 3860 473 L 3860 540 4037.500 540 L 4215 540 4215 473 L 4215 406 4037.500 406 L 3860 406 3860 473 M 200.500 568.642 C 188.404 571.197, 177.889 577.024, 168.552 586.347 C 159.171 595.714, 154.071 604.493, 150.972 616.609 C 143.195 647.017, 159.911 679.724, 189.370 691.738 C 202.681 697.166, 189.414 696.927, 480.250 696.965 L 750 697 750 632 L 750 567 478.750 567.082 C 243.419 567.152, 206.573 567.359, 200.500 568.642 M 3860 632.002 L 3860 697.028 4133.750 696.743 C 4394.561 696.472, 4407.781 696.373, 4413.437 694.649 C 4421.273 692.261, 4430.112 687.735, 4436.799 682.687 C 4452.897 670.532, 4463.109 647.777, 4461.538 627.559 C 4459.508 601.420, 4442.572 579.698, 4417.118 570.585 L 4408.500 567.500 4134.250 567.238 L 3860 566.975 3860 632.002 M 1038 1105 L 1038 1500 1068.500 1500 L 1099 1500 1099 1105 L 1099 710 1068.500 710 L 1038 710 1038 1105 M 1142 1105 L 1142 1500 1173 1500 L 1204 1500 1204 1105 L 1204 710 1173 710 L 1142 710 1142 1105 M 1322 1105 L 1322 1500 1353 1500 L 1384 1500 1384 1105 L 1384 710 1353 710 L 1322 710 1322 1105 M 1532 1105 L 1532 1500 1563 1500 L 1594 1500 1594 1105 L 1594 710 1563 710 L 1532 710 1532 1105 M 1712 1105 L 1712 1500 1743 1500 L 1774 1500 1774 1105 L 1774 710 1743 710 L 1712 710 1712 1105 M 1907 1105 L 1907 1500 1938 1500 L 1969 1500 1969 1105 L 1969 710 1938 710 L 1907 710 1907 1105 M 2087 1105 L 2087 1500 2118 1500 L 2149 1500 2149 1105 L 2149 710 2118 710 L 2087 710 2087 1105 M 2282 1105 L 2282 1500 2313 1500 L 2344 1500 2344 1105 L 2344 710 2313 710 L 2282 710 2282 1105 M 2477 1105 L 2477 1500 2508 1500 L 2539 1500 2539 1105 L 2539 710 2508 710 L 2477 710 2477 1105 M 2657 1105 L 2657 1500 2687.500 1500 L 2718 1500 2718 1105 L 2718 710 2687.500 710 L 2657 710 2657 1105 M 2852 1105 L 2852 1500 2882.500 1500 L 2913 1500 2913 1105 L 2913 710 2882.500 710 L 2852 710 2852 1105 M 3032 1105 L 3032 1500 3062.500 1500 L 3093 1500 3093 1105 L 3093 710 3062.500 710 L 3032 710 3032 1105 M 3241 1105 L 3241 1500 3272 1500 L 3303 1500 3303 1105 L 3303 710 3272 710 L 3241 710 3241 1105 M 3421 1105 L 3421 1500 3452 1500 L 3483 1500 3483 1105 L 3483 710 3452 710 L 3421 710 3421 1105 M 3526 1105 L 3526 1500 3557 1500 L 3588 1500 3588 1105 L 3588 710 3557 710 L 3526 710 3526 1105 M 255 1111.500 L 255 1500 327.500 1500 L 400 1500 400 1111.500 L 400 723 327.500 723 L 255 723 255 1111.500 M 463 1111.500 L 463 1500 521 1500 L 579 1500 579 1111.500 L 579 723 521 723 L 463 723 463 1111.500 M 643 1111.500 L 643 1500 696.500 1500 L 750 1500 750 1111.500 L 750 723 696.500 723 L 643 723 643 1111.500 M 3860 1111.500 L 3860 1500 3914 1500 L 3968 1500 3968 1111.500 L 3968 723 3914 723 L 3860 723 3860 1111.500 M 4031 1111.500 L 4031 1500 4089.500 1500 L 4148 1500 4148 1111.500 L 4148 723 4089.500 723 L 4031 723 4031 1111.500 M 4211 1111.500 L 4211 1500 4283.500 1500 L 4356 1500 4356 1111.500 L 4356 723 4283.500 723 L 4211 723 4211 1111.500 M 636.745 1682.755 C 616.535 1702.970, 600 1719.845, 600 1720.255 C 600 1720.665, 605.625 1721, 612.500 1721 L 625 1721 625 1908 L 625 2095 584 2095 L 543 2095 543 1994.255 L 543 1893.510 505.492 1931.005 L 467.984 1968.500 480.492 1968.780 L 493 1969.060 493 2032.030 L 493 2095 441.248 2095 L 389.497 2095 279.501 1985.001 L 169.505 1875.002 117.253 1927.247 C 88.514 1955.982, 65 1979.944, 65 1980.495 C 65 1981.045, 109.551 2026.048, 164.001 2080.501 L 263.002 2179.506 219.241 2223.259 L 175.479 2267.013 164.506 2256.006 C 158.472 2249.953, 153.189 2245, 152.767 2245 C 152.345 2245, 152 2258.275, 152 2274.500 L 152 2304 181.253 2304 L 210.506 2304 272.253 2242.247 C 306.214 2208.283, 334 2180.046, 334 2179.499 C 334 2178.952, 289.340 2133.842, 234.756 2079.256 L 135.513 1980.009 152.500 1963 L 169.487 1945.991 268.995 2045.495 L 368.504 2145 729.790 2145 L 1091.077 2145 1090.767 2050.250 C 1090.457 1955.685, 1090.452 1955.485, 1088.222 1947.567 C 1079.515 1916.650, 1056.483 1894.017, 1026.500 1886.916 C 1014.372 1884.043, 993.225 1884.560, 982.500 1887.990 C 949.335 1898.599, 926.467 1926.699, 923.393 1960.618 L 922.724 1968 798.862 1968 L 675 1968 675 1807 C 675 1718.450, 674.660 1646, 674.245 1646 C 673.830 1646, 656.955 1662.540, 636.745 1682.755 M 1509.745 1682.755 C 1489.535 1702.970, 1473 1719.845, 1473 1720.255 C 1473 1720.665, 1478.625 1721, 1485.500 1721 L 1498 1721 1498 1908 L 1498 2095 1463.005 2095 L 1428.009 2095 1427.755 1989.499 L 1427.500 1883.997 1297.001 2014.499 L 1166.503 2145 1272.251 2145 L 1378 2145 1378 2179.790 C 1378 2218.367, 1377.566 2221.968, 1371.708 2231.985 C 1367.200 2239.692, 1355.138 2251.377, 1343.980 2258.845 C 1325.215 2271.405, 1291.356 2286.319, 1258.506 2296.493 C 1234.521 2303.921, 1188.743 2315.076, 1187.470 2313.803 C 1187.248 2313.582, 1197.064 2311.027, 1209.284 2308.127 C 1235.358 2301.937, 1235.289 2301.955, 1234.680 2301.347 C 1234.180 2300.847, 1166.953 2316.714, 1166.144 2317.523 C 1165.306 2318.361, 1194.907 2318.016, 1212.500 2316.982 C 1335.532 2309.755, 1413.308 2277.126, 1426.025 2227.404 C 1427.819 2220.389, 1428 2216.252, 1428 2182.340 L 1428 2145 1488 2145 L 1548 2145 1548 1895.500 C 1548 1758.275, 1547.660 1646, 1547.245 1646 C 1546.830 1646, 1529.955 1662.540, 1509.745 1682.755 M 1616 1895.500 L 1616 2145 1665.500 2145 C 1692.725 2145, 1715 2144.659, 1715 2144.242 C 1715 2143.826, 1703.975 2132.467, 1690.500 2119 L 1666 2094.515 1666 1907.758 L 1666 1721 1678.500 1721 C 1685.375 1721, 1691 1720.660, 1691 1720.245 C 1691 1719.265, 1617.726 1646, 1616.745 1646 C 1616.335 1646, 1616 1758.275, 1616 1895.500 M 2780.314 1647.799 C 2753.531 1657.354, 2746.389 1691.257, 2767.116 1710.447 C 2774.862 1717.619, 2781.846 1720.341, 2792.500 1720.341 C 2803.154 1720.341, 2810.138 1717.619, 2817.884 1710.447 C 2826.477 1702.491, 2829.461 1695.419, 2829.463 1683 C 2829.464 1674.338, 2829.181 1672.917, 2826.250 1666.893 C 2822.421 1659.026, 2816.122 1652.865, 2808.175 1649.214 C 2800.572 1645.721, 2787.937 1645.080, 2780.314 1647.799 M 3610.745 1682.755 C 3590.535 1702.970, 3574 1719.845, 3574 1720.255 C 3574 1720.665, 3579.400 1721, 3586 1721 L 3598 1721 3598 1908 L 3598 2095 3543 2095 L 3488 2095 3488 1986 C 3488 1926.050, 3487.660 1877, 3487.245 1877 C 3486.265 1877, 3413 1950.274, 3413 1951.255 C 3413 1951.665, 3418.400 1952, 3425 1952 L 3437 1952 3437 2023.500 L 3437 2095 3407.500 2095 L 3378 2095 3378 2014 C 3378 1969.450, 3377.660 1933, 3377.245 1933 C 3376.265 1933, 3303 2006.274, 3303 2007.255 C 3303 2007.665, 3308.625 2008, 3315.500 2008 L 3328 2008 3328 2051.500 L 3328 2095 3298 2095 L 3268 2095 3268 2042 C 3268 2012.850, 3267.660 1989, 3267.245 1989 C 3266.830 1989, 3249.844 2005.650, 3229.500 2026 L 3192.510 2063 3205.287 2063 L 3218.065 2063 3217.778 2162.250 L 3217.491 2261.500 3214.676 2273.907 C 3207.454 2305.727, 3197.645 2326.875, 3187.735 2331.993 L 3183.500 2334.180 3191.542 2333.584 C 3218.145 2331.612, 3242.698 2316.203, 3256.899 2292.567 C 3258.769 2289.456, 3261.919 2282.317, 3263.899 2276.705 L 3267.500 2266.500 3267.793 2205.750 L 3268.087 2145 3704.286 2145 L 4140.485 2145 4115.500 2120 L 4090.515 2095 4061.004 2095 L 4031.493 2095 3976.500 2040 L 3921.507 1985 4038.198 1985 L 4154.890 1985 4155.242 2022.750 C 4155.635 2064.915, 4155.715 2065.514, 4163.036 2080.674 C 4173.446 2102.230, 4193.926 2118.937, 4217.500 2125.105 C 4227.055 2127.604, 4246.187 2128.099, 4255.500 2126.088 C 4288.106 2119.044, 4313.705 2093.464, 4320.573 2061.066 C 4321.736 2055.580, 4321.968 2020.856, 4321.983 1850.005 L 4322 1645.510 4284.492 1683.005 L 4246.984 1720.500 4259.504 1720.780 L 4272.023 1721.060 4271.762 1886.301 L 4271.500 2051.543 4268.208 2058.229 C 4262.500 2069.823, 4252.796 2076.219, 4240 2076.822 C 4234.147 2077.097, 4231.248 2076.705, 4226.798 2075.034 C 4219.327 2072.228, 4211.845 2065.420, 4208.300 2058.203 L 4205.500 2052.500 4205.238 1889.250 C 4205.094 1799.463, 4204.760 1726, 4204.496 1726 C 4204.232 1726, 4157.149 1773.025, 4099.866 1830.500 L 3995.716 1935 3933.605 1935 L 3871.493 1935 3820.500 1884 C 3792.454 1855.950, 3769.053 1833, 3768.498 1833 C 3767.350 1833, 3698 1902.111, 3698 1903.255 C 3698 1903.665, 3713.863 1904, 3733.252 1904 L 3768.504 1904 3864 1999.500 L 3959.496 2095 3804.248 2095 L 3649 2095 3649 1870.500 C 3649 1747.025, 3648.660 1646, 3648.245 1646 C 3647.830 1646, 3630.955 1662.540, 3610.745 1682.755 M 4390 1895.500 L 4390 2145 4440.242 2145 L 4490.485 2145 4465.742 2120.243 L 4441 2095.485 4441 1908.243 L 4441 1721 4453 1721 C 4459.600 1721, 4465 1720.660, 4465 1720.245 C 4465 1719.265, 4391.726 1646, 4390.745 1646 C 4390.335 1646, 4390 1758.275, 4390 1895.500 M 2897.005 1695.495 L 2859.510 1733 2872.266 1733 L 2885.022 1733 2884.761 1948.750 L 2884.500 2164.500 2881.865 2170.120 C 2873.457 2188.051, 2853.787 2195.369, 2836.495 2186.997 C 2831.055 2184.364, 2824.394 2177.639, 2821.146 2171.500 L 2818.500 2166.500 2818.238 2008.750 C 2818.094 1921.987, 2817.641 1851, 2817.233 1851 C 2816.260 1851, 2743 1924.282, 2743 1925.255 C 2743 1925.665, 2748.400 1926, 2755 1926 L 2767 1926 2767 2016.500 L 2767 2107 2737.500 2107 L 2708 2107 2708 2006.255 L 2708 1905.510 2670.492 1943.005 L 2632.984 1980.500 2645.492 1980.780 L 2658 1981.060 2658 2044.030 L 2658 2107 2628 2107 L 2598 2107 2598 2034.255 L 2598 1961.510 2560.492 1999.005 L 2522.984 2036.500 2535.492 2036.780 L 2548 2037.060 2548 2072.030 L 2548 2107 2526.246 2107 L 2504.491 2107 2462 2064.500 L 2419.510 2022.001 2454.254 1987.246 L 2488.998 1952.491 2436.246 1899.746 L 2383.493 1847 2331.246 1899.254 C 2302.511 1927.993, 2279 1951.958, 2279 1952.509 C 2279 1953.060, 2294.525 1969.031, 2313.501 1988.001 L 2348.001 2022.490 2305.755 2064.745 L 2263.509 2107 2241.254 2107 L 2219 2107 2219 2032.255 L 2219 1957.510 2181.492 1995.005 L 2143.984 2032.500 2156.492 2032.780 L 2169 2033.060 2169 2070.030 L 2169 2107 2117.748 2107 L 2066.497 2107 1957 1997.500 C 1896.777 1937.275, 1847.054 1888, 1846.505 1888 C 1845.956 1888, 1821.993 1911.511, 1793.253 1940.247 L 1740.998 1992.495 1840.746 2092.246 L 1940.494 2191.998 1896.507 2235.993 L 1852.519 2279.989 1840.760 2268.260 L 1829 2256.531 1829 2286.266 L 1829 2316 1858.253 2316 L 1887.506 2316 1949.253 2254.247 C 1983.214 2220.283, 2011 2192.044, 2011 2191.495 C 2011 2190.946, 1966.452 2145.950, 1912.004 2091.504 L 1813.009 1992.513 1829.748 1975.752 L 1846.487 1958.991 1945.995 2058.495 L 2045.504 2158 2164.525 2158 L 2283.547 2158 2333.515 2107.995 L 2383.483 2057.990 2433.495 2107.995 L 2483.507 2158 2625.129 2158 L 2766.750 2158 2767.375 2161.125 C 2767.719 2162.844, 2768 2165.472, 2768 2166.965 C 2768 2171.767, 2771.930 2185.285, 2775.543 2192.911 C 2798.456 2241.272, 2860.046 2256.050, 2902.658 2223.411 C 2918.575 2211.220, 2929.433 2193.617, 2933.446 2173.500 C 2934.885 2166.280, 2935.015 2140.748, 2934.771 1911.745 L 2934.500 1657.990 2897.005 1695.495 M 3003 1907.755 L 3003 2158 3053 2158 C 3080.500 2158, 3103 2157.659, 3103 2157.242 C 3103 2156.826, 3091.750 2145.242, 3078 2131.500 L 3053 2106.515 3053 1919.787 L 3053 1733.060 3065.508 1732.780 L 3078.016 1732.500 3040.508 1695.005 L 3003 1657.510 3003 1907.755 M 510.407 1726.974 C 499.242 1729.341, 489.762 1736.672, 484.787 1746.787 C 481.690 1753.083, 481.502 1754.076, 481.543 1763.984 C 481.593 1776.309, 483.269 1781.078, 490.201 1788.610 C 498.028 1797.114, 506.810 1801, 518.203 1801 C 534.288 1801, 548.108 1791.226, 553.555 1776 C 555.718 1769.951, 555.740 1758.760, 553.601 1751.967 C 550.357 1741.664, 541.067 1731.989, 531.112 1728.545 C 525.505 1726.606, 515.668 1725.859, 510.407 1726.974 M 2670.300 1740.805 C 2657.224 1745.467, 2648.578 1755.781, 2646.047 1769.740 C 2643.868 1781.756, 2647.678 1793.755, 2656.461 1802.539 C 2674.643 1820.720, 2705.218 1815.587, 2716.581 1792.446 C 2719.244 1787.022, 2719.500 1785.578, 2719.500 1776 C 2719.500 1766.562, 2719.221 1764.932, 2716.743 1759.888 C 2713.416 1753.116, 2704.879 1744.764, 2698.291 1741.833 C 2691.452 1738.791, 2677.398 1738.275, 2670.300 1740.805 M 2558.920 1834.287 C 2551.182 1837.548, 2546.667 1841.249, 2542.120 1848.058 C 2537.252 1855.349, 2535.623 1861.935, 2536.205 1871.985 C 2536.986 1885.465, 2544.470 1896.658, 2556.705 1902.644 C 2564.753 1906.581, 2577.880 1907.177, 2586.344 1903.988 C 2602.977 1897.721, 2613.094 1880.063, 2609.959 1862.772 C 2607.765 1850.673, 2601.248 1841.559, 2590.768 1835.934 C 2585.044 1832.861, 2583.633 1832.541, 2574.500 1832.252 C 2565.812 1831.977, 2563.768 1832.244, 2558.920 1834.287 M 4110.500 1891 L 4066.509 1935 4110.754 1935 L 4155 1935 4155 1891 C 4155 1866.800, 4154.886 1847, 4154.746 1847 C 4154.606 1847, 4134.695 1866.800, 4110.500 1891 M 2366.739 1935.761 L 2350 1952.522 2367 1969.500 L 2384 1986.478 2401 1969.500 L 2418 1952.522 2401.261 1935.761 C 2392.055 1926.542, 2384.287 1919, 2384 1919 C 2383.713 1919, 2375.945 1926.542, 2366.739 1935.761 M 997.324 1936.380 C 991.206 1938.380, 986.652 1941.481, 981.636 1947.060 C 974.050 1955.497, 973.660 1957.480, 973.234 1989.750 L 972.861 2018 823.930 2018 L 675 2018 675 2056.500 L 675 2095 857.527 2095 L 1040.053 2095 1039.777 2026.750 L 1039.500 1958.500 1037.179 1954.151 C 1033.671 1947.576, 1027.411 1941.348, 1021.314 1938.365 C 1014.737 1935.147, 1003.849 1934.246, 997.324 1936.380 M 1337.500 2055 L 1297.509 2095 1337.755 2095 L 1378 2095 1378 2055 C 1378 2033, 1377.885 2015, 1377.745 2015 C 1377.605 2015, 1359.495 2033, 1337.500 2055 M 3849.836 2247.853 C 3839.007 2251.442, 3831.905 2257.707, 3827.135 2267.880 C 3824.837 2272.780, 3824.500 2274.783, 3824.500 2283.521 C 3824.500 2292.806, 3824.739 2294.027, 3827.750 2300.144 C 3831.609 2307.981, 3837.894 2314.129, 3845.825 2317.822 C 3850.692 2320.088, 3852.852 2320.466, 3861 2320.482 C 3869.395 2320.498, 3871.231 2320.163, 3876.782 2317.599 C 3881.076 2315.616, 3884.768 2312.858, 3888.447 2308.884 C 3895.585 2301.174, 3898.287 2294.204, 3898.287 2283.500 C 3898.287 2272.796, 3895.585 2265.826, 3888.447 2258.116 C 3881.380 2250.483, 3873.774 2246.957, 3863.149 2246.387 C 3857.469 2246.082, 3854.042 2246.460, 3849.836 2247.853 M 2181.844 2255.348 C 2168.215 2260.386, 2159.613 2270.590, 2157.041 2284.772 C 2153.905 2302.066, 2164.038 2319.747, 2180.656 2325.977 C 2189.227 2329.190, 2202.216 2328.622, 2210.239 2324.682 C 2217.552 2321.091, 2224.091 2314.552, 2227.682 2307.239 C 2230.229 2302.051, 2230.500 2300.492, 2230.500 2291 C 2230.500 2281.422, 2230.244 2279.978, 2227.581 2274.554 C 2223.861 2266.978, 2217.447 2260.567, 2210.196 2257.177 C 2205.488 2254.976, 2202.852 2254.469, 2195 2254.255 C 2188.882 2254.089, 2184.199 2254.478, 2181.844 2255.348" stroke="none" fill="#0c5444" fill-rule="evenodd"/></svg>