<?xml version="1.0" encoding="UTF-8" standalone="no"?>
<!-- Generator: Adobe Illustrator 16.0.0, SVG Export Plug-In . SVG Version: 6.00 Build 0)  -->

<svg
   xmlns:dc="http://purl.org/dc/elements/1.1/"
   xmlns:cc="http://creativecommons.org/ns#"
   xmlns:rdf="http://www.w3.org/1999/02/22-rdf-syntax-ns#"
   xmlns:svg="http://www.w3.org/2000/svg"
   xmlns="http://www.w3.org/2000/svg"
   xmlns:sodipodi="http://sodipodi.sourceforge.net/DTD/sodipodi-0.dtd"
   xmlns:inkscape="http://www.inkscape.org/namespaces/inkscape"
   version="1.1"
   id="Calque_1"
   x="0px"
   y="0px"
   width="1210px"
   height="814.77px"
   viewBox="0 0 1210 814.77"
   enable-background="new 0 0 1210 814.77"
   xml:space="preserve"
   inkscape:version="0.48.4 r9939"
   sodipodi:docname="Logo BDL Banque 2 DZ.svg"><title
   id="title3056">BDL Banque</title><metadata
   id="metadata79"><rdf:RDF><cc:Work
       rdf:about=""><dc:format>image/svg+xml</dc:format><dc:type
         rdf:resource="http://purl.org/dc/dcmitype/StillImage" /><dc:title>BDL Banque</dc:title></cc:Work></rdf:RDF></metadata><defs
   id="defs77" /><sodipodi:namedview
   pagecolor="#ffffff"
   bordercolor="#666666"
   borderopacity="1"
   objecttolerance="10"
   gridtolerance="10"
   guidetolerance="10"
   inkscape:pageopacity="0"
   inkscape:pageshadow="2"
   inkscape:window-width="640"
   inkscape:window-height="480"
   id="namedview75"
   showgrid="false"
   inkscape:zoom="0.28965229"
   inkscape:cx="605"
   inkscape:cy="407.38501"
   inkscape:window-x="0"
   inkscape:window-y="0"
   inkscape:window-maximized="0"
   inkscape:current-layer="Calque_1" />
<ellipse
   fill="#F4F3F2"
   stroke="#010101"
   stroke-width="0.5"
   stroke-miterlimit="10"
   cx="1062.1"
   cy="668.14"
   rx="71.25"
   ry="73.75"
   id="ellipse3" />
<g
   id="g5">
	<path
   fill="#FFFFFF"
   stroke="#010101"
   stroke-width="0.5"
   stroke-miterlimit="10"
   d="M1006.5,780H425v-35h536.6   C973.8,759.6,989.1,771.6,1006.5,780z"
   id="path7" />
	<path
   fill="#FFFFFF"
   stroke="#010101"
   stroke-width="0.5"
   stroke-miterlimit="10"
   d="M947.789,725H425v-30.8H935.4   C938.11,705.1,942.3,715.4,947.789,725z"
   id="path9" />
	<path
   fill="#FFFFFF"
   stroke="#010101"
   stroke-width="0.5"
   stroke-miterlimit="10"
   d="M931.199,661.89c0,4.2,0.21,8.301,0.69,12.301   H425V644.59H932.4C931.6,650.2,931.199,656,931.199,661.89z"
   id="path11" />
	<path
   fill="#FFFFFF"
   stroke="#010101"
   stroke-width="0.5"
   stroke-miterlimit="10"
   d="M950,595c-5.7,9.2-10.101,19.1-13.301,29.6   H425V595H950z"
   id="path13" />
	<path
   fill="#FFFFFF"
   stroke="#010101"
   stroke-width="0.5"
   stroke-miterlimit="10"
   d="M1004.8,544.6   c-15.21,7.601-28.811,18-39.9,30.4H425v-30.4H1004.8z"
   id="path15" />
	<path
   fill="#FFFFFF"
   stroke="#010101"
   stroke-width="0.5"
   stroke-miterlimit="10"
   d="M1177.1,524.6H425V506.7c0,0,0-4.601,1.8-11.7   H1177L1177.1,524.6z"
   id="path17" />
	<path
   fill="#FFFFFF"
   stroke="#010101"
   stroke-width="0.5"
   stroke-miterlimit="10"
   d="M1176.89,475H434.5c2.1-4,4.8-8.2,8-12.5   c5.699-7.5,13.3-13.6,21-18.3h713.3L1176.89,475z"
   id="path19" />
	<path
   fill="#FFFFFF"
   stroke="#010101"
   stroke-width="0.5"
   stroke-miterlimit="10"
   d="M1176.699,424.2H778   c18.1-8.3,42-23.2,48.899-34.2c1.01-1.6,2.21-3.6,3.3-5.8h346.41L1176.699,424.2z"
   id="path21" />
	<path
   fill="#FFFFFF"
   stroke="#010101"
   stroke-width="0.5"
   stroke-miterlimit="10"
   d="M1176.5,364.2H839.6   c4.2-10.1,7.61-20.8,8.399-29.2h328.41L1176.5,364.2z"
   id="path23" />
	<polygon
   fill="#FFFFFF"
   stroke="#010101"
   stroke-width="0.5"
   stroke-miterlimit="10"
   points="1176.3,315 848.3,315 848.3,284.6    1176.199,284.6  "
   id="polygon25" />
	<polygon
   fill="#FFFFFF"
   stroke="#010101"
   stroke-width="0.5"
   stroke-miterlimit="10"
   points="1176.09,264.6 848.3,264.6    848.3,234.6 1176,234.6  "
   id="polygon27" />
	<polygon
   fill="#FFFFFF"
   stroke="#010101"
   stroke-width="0.5"
   stroke-miterlimit="10"
   points="1175.9,214.6 848.3,214.6 848.3,185    1175.8,185  "
   id="polygon29" />
	<polygon
   fill="#FFFFFF"
   stroke="#010101"
   stroke-width="0.5"
   stroke-miterlimit="10"
   points="1175.699,165 848.3,165 848.3,134.2    1175.61,134.2  "
   id="polygon31" />
	<path
   fill="#FFFFFF"
   stroke="#010101"
   stroke-width="0.5"
   stroke-miterlimit="10"
   d="M1175,114.2H848.3V85h315.899   c4.2,7.6,8.2,15.7,9.71,21.3C1174.39,108,1174.709,111,1175,114.2z"
   id="path33" />
	<path
   fill="#FFFFFF"
   stroke="#010101"
   stroke-width="0.5"
   stroke-miterlimit="10"
   d="M1152.699,65H848.3V30h263.399   c7.101,1.7,19.5,10.2,25,15C1141.3,49.1,1148.11,58.1,1152.699,65z"
   id="path35" />
</g>
<g
   id="g37">
	<path
   fill="#525150"
   stroke="#010101"
   stroke-width="0.5"
   stroke-miterlimit="10"
   d="M1177.3,575h-8.4   c-11.21-12.5-24.8-22.8-40.11-30.4h48.301L1177.3,575z"
   id="path39" />
	<path
   fill="#525150"
   stroke="#010101"
   stroke-width="0.5"
   stroke-miterlimit="10"
   d="M961.6,745H425v-20h522.789   C951.699,732.1,956.409,738.8,961.6,745z"
   id="path41" />
	<path
   fill="#525150"
   stroke="#010101"
   stroke-width="0.5"
   stroke-miterlimit="10"
   d="M935.4,694.2H425v-20h506.89   C932.4,681,933.59,687.7,935.4,694.2z"
   id="path43" />
	<path
   fill="#525150"
   stroke="#010101"
   stroke-width="0.5"
   stroke-miterlimit="10"
   d="M936.699,624.6   c-1.989,6.49-3.399,13.101-4.3,20H425v-20H936.699z"
   id="path45" />
	<path
   fill="#525150"
   stroke="#010101"
   stroke-width="0.5"
   stroke-miterlimit="10"
   d="M964.9,575c-5.61,6.09-10.61,12.79-14.899,20   H425v-20H964.9z"
   id="path47" />
	<path
   fill="#525150"
   stroke="#010101"
   stroke-width="0.5"
   stroke-miterlimit="10"
   d="M1177.3,575v10.29   c-2.601-3.59-5.41-6.99-8.4-10.29H1177.3z"
   id="path49" />
	<path
   fill="#525150"
   stroke="#010101"
   stroke-width="0.5"
   stroke-miterlimit="10"
   d="M1177.1,524.6v20h-48.3   c-18.511-9.399-39.601-14.6-61.9-14.6c-22.39,0-43.5,5.3-62.09,14.6H425v-20H1177.1z"
   id="path51" />
	<path
   fill="#525150"
   stroke="#010101"
   stroke-width="0.5"
   stroke-miterlimit="10"
   d="M1177,495H426.8c1.3-5.4,3.6-12.3,7.7-20   h742.39L1177,495z"
   id="path53" />
	<path
   fill="#525150"
   stroke="#010101"
   stroke-width="0.5"
   stroke-miterlimit="10"
   d="M1176.8,444.2H463.5   C479.1,434.4,495,430,495,430h266.699c4-0.7,9.801-2.8,16.3-5.8h398.7L1176.8,444.2z"
   id="path55" />
	<path
   fill="#525150"
   stroke="#010101"
   stroke-width="0.5"
   stroke-miterlimit="10"
   d="M1176.6,384.2h-346.4   c3.01-5.5,6.41-12.6,9.4-20h336.9L1176.6,384.2z"
   id="path57" />
	<path
   fill="#525150"
   stroke="#010101"
   stroke-width="0.5"
   stroke-miterlimit="10"
   d="M1176.409,335H848c0.3-1.8,0.399-3.5,0.3-5   v-15h328L1176.409,335z"
   id="path59" />
	<polygon
   fill="#525150"
   stroke="#010101"
   stroke-width="0.5"
   stroke-miterlimit="10"
   points="1176.199,284.6 848.3,284.6    848.3,264.6 1176.09,264.6  "
   id="polygon61" />
	<polygon
   fill="#525150"
   stroke="#010101"
   stroke-width="0.5"
   stroke-miterlimit="10"
   points="1176,234.6 848.3,234.6 848.3,214.6    1175.9,214.6  "
   id="polygon63" />
	<polygon
   fill="#525150"
   stroke="#010101"
   stroke-width="0.5"
   stroke-miterlimit="10"
   points="1175.8,185 848.3,185 848.3,165    1175.699,165  "
   id="polygon65" />
	<path
   fill="#525150"
   stroke="#010101"
   stroke-width="0.5"
   stroke-miterlimit="10"
   d="M1175.61,126.9v7.3H848.3v-20H1175   C1175.4,120.2,1175.61,126.9,1175.61,126.9z"
   id="path67" />
	<path
   fill="#525150"
   stroke="#010101"
   stroke-width="0.5"
   stroke-miterlimit="10"
   d="M1164.199,85H848.3V65h304.39   c1.21,1.9,2.3,3.6,3.11,5C1158,73.8,1161.199,79.2,1164.199,85z"
   id="path69" />
</g>
<path
   fill="#FBBF18"
   stroke="#010101"
   stroke-width="0.5"
   stroke-miterlimit="10"
   d="M797.5,30H208.33  c-16.301,1.84-46.48,10.6-70,24.17C112.26,69.2,93.21,89.52,85,99.38c-9.7,11.64-27.42,35.29-38.33,56.04  C34.8,177.98,30.07,197.86,28.34,214.6c0,0-0.34,352.2,0,469.6c0.05,18.33,10.689,52.939,27.29,68.93  C72.5,769.38,104.45,780,121.67,780c60.83,0,243.33,0,243.33,0V509.8c2.359-22.77,11.67-55.63,32.5-85.6  c20.88-30.04,56.079-46.16,79.17-50h255c0,0,28.26-2.28,46.33-20.03c19.5-19.17,19.5-47.5,19.5-47.5V30z"
   id="path71" />
<ellipse
   fill="#FFFFFF"
   stroke="#010101"
   stroke-width="0.5"
   stroke-miterlimit="10"
   cx="627.1"
   cy="203.76"
   rx="71.25"
   ry="73.75"
   id="ellipse73" />
</svg>