<?xml version="1.0" encoding="UTF-8"?>
<svg id="Layer_1" xmlns="http://www.w3.org/2000/svg" version="1.1" viewBox="0 0 889.28 103">
  <!-- Generator: Adobe Illustrator 29.0.1, SVG Export Plug-In . SVG Version: 2.1.0 Build 192)  -->
  <defs>
    <style>
      .st0 {
        fill: #eb1d24;
      }

      .st1 {
        fill: #57ac48;
      }

      .st2 {
        fill: #fff;
      }

      .st3 {
        fill: #60ae47;
      }
    </style>
  </defs>
  <g>
    <rect class="st1" x="346.7" y="2.23" width="195.87" height="67.25"/>
    <g>
      <g>
        <path class="st0" d="M406.71,18.33c0,.86-.49,1.65-1.28,2.05-1.83.93-4.49.93-6.32,0-.79-.4-1.28-1.19-1.28-2.05v-2.07c0-.87.49-1.66,1.28-2.05,1.83-.93,4.49-.93,6.32,0,.79.4,1.28,1.19,1.28,2.05v2.07ZM399.51,16.26v2.07c0,.26.14.48.37.6,1.33.68,3.43.68,4.76,0,.24-.12.38-.34.38-.6v-2.07c0-.25-.14-.48-.38-.59-1.33-.68-3.43-.68-4.76,0-.23.12-.37.34-.37.59"/>
        <path class="st0" d="M409.61,15.67c1.33-.68,3.43-.68,4.77,0,.23.12.37.34.37.6v2.06c0,.26-.14.48-.37.6-1.34.68-3.43.68-4.77,0-.24-.12-.37-.34-.37-.6v-2.06c0-.25.14-.48.37-.6M407.55,18.33c0,.87.49,1.66,1.28,2.06,1.83.93,4.49.93,6.33,0,.78-.4,1.28-1.19,1.28-2.06v-2.06c0-.87-.5-1.66-1.28-2.05-1.71-.87-4.12-.92-5.92-.18v-1.85s-.02-.05-.03-.07c-.02-.02-.04-.03-.07-.03-.01,0-.03,0-.04,0l-1.41.68s-.04.03-.06.04c-.04.04-.07.09-.07.14v5.37Z"/>
        <path class="st0" d="M424,12.99c0,.16-.09.31-.24.39-.35.18-.85.18-1.2,0-.15-.08-.24-.23-.24-.39v-.39c0-.16.09-.31.24-.39.35-.18.85-.18,1.2,0,.15.08.24.22.24.39v.39Z"/>
        <path class="st0" d="M418.96,12.99c0,.16-.09.31-.24.39-.35.18-.85.18-1.2,0-.15-.08-.24-.23-.24-.39v-.39c0-.16.09-.31.24-.39.35-.18.86-.18,1.2,0,.15.08.24.22.24.39v.39Z"/>
        <path class="st0" d="M421.48,20.57c0,.06-.04.11-.1.11h-1.47c-.06,0-.11-.05-.11-.11v-7.6c0-.06.02-.11.06-.15.02-.02.04-.04.07-.04l1.4-.69s.03,0,.04,0c.03,0,.05.01.07.03.02.02.03.04.03.07v8.39Z"/>
        <path class="st0" d="M422.32,14.81c0-.06.02-.11.06-.15.02-.02.04-.03.06-.05l1.41-.68s.03,0,.04,0c.03,0,.05,0,.07.03.02.02.03.05.03.07v6.55c0,.06-.04.11-.1.11h-1.47c-.06,0-.11-.04-.11-.11v-5.76Z"/>
        <path class="st0" d="M418.96,14.81c0-.06-.02-.11-.06-.15-.02-.02-.05-.03-.07-.05l-1.41-.68s-.03,0-.04,0c-.03,0-.06,0-.08.03-.02.02-.03.05-.03.07v6.55c0,.06.05.11.11.11h1.47c.06,0,.1-.04.1-.11v-5.76Z"/>
        <path class="st0" d="M384.27,16.26c0-.25.14-.48.37-.59,1.19-.61,2.98-.67,4.3-.2v5.1c0,.06.04.11.1.11h1.48c.05,0,.1-.04.1-.11v-5.1c1.32-.47,3.11-.41,4.3.2.23.12.38.34.38.59v4.3c0,.06.04.11.1.11h1.48c.05,0,.1-.04.1-.11v-4.3c0-.87-.49-1.66-1.28-2.05-1.7-.87-4.12-.93-5.92-.18-1.81-.74-4.22-.68-5.92.18-.79.4-1.27,1.19-1.27,2.05v4.3c0,.06.04.11.1.11h1.47c.05,0,.1-.04.1-.11v-4.3Z"/>
        <path class="st0" d="M424.84,16.26c0-.87.49-1.66,1.28-2.05,1.84-.93,4.49-.93,6.32,0,.6.3,1.02.83,1.2,1.44h-2c-1.34-.67-3.41-.66-4.75.02-.24.12-.37.34-.37.59v.21h7.09c.06,0,.11.05.11.1v1.75c0,.86-.49,1.65-1.28,2.05-1.83.93-4.49.93-6.32,0-.6-.3-1.03-.83-1.2-1.44h2c1.34.67,3.42.66,4.74-.01.24-.12.37-.34.37-.6v-.21h-7.1c-.05,0-.1-.04-.1-.1v-1.75Z"/>
      </g>
      <g>
        <path class="st2" d="M430.67,51.64c-.97-.47-2.32-.47-3.29,0-.42.21-.68.62-.68,1.08v1.06c0,.46.26.87.68,1.07.96.47,2.32.47,3.29,0,.39-.2.64-.61.64-1.07v-1.06c0-.47-.25-.87-.64-1.08M453.92,51.64c-.93-.47-2.33-.47-3.28,0-.41.21-.64.62-.64,1.08v1.06c0,.46.23.87.64,1.07.96.47,2.35.47,3.28,0,.4-.2.64-.61.64-1.07v-1.06c0-.47-.24-.87-.64-1.08M527.42,27.99c-4.64-2.37-11.27-2.54-16.2-.49v-1.12c0-.09-.02-.17-.07-.22-.05-.05-.15-.08-.21-.08-.05,0-.11.01-.11.01l-3.88,1.9c-.06.01-.11.05-.19.1-.08.12-.15.26-.15.4v12.89c0,.2-.09.41-.3.5-1.1.54-2.87.54-3.97,0-.21-.1-.31-.3-.31-.5v-7.77c0-2.38-1.36-4.55-3.49-5.63-5.04-2.54-12.29-2.54-17.33,0-2.14,1.09-3.47,3.25-3.47,5.63v5.64c0,2.38,1.33,4.53,3.47,5.63,4.67,2.35,11.28,2.53,16.22.5v2.28c0,.72-.39,1.33-1.04,1.67-3.63,1.84-9.32,1.84-12.97.02h-5.46c.47,1.68,1.64,3.11,3.24,3.95,5.04,2.53,12.29,2.53,17.33,0,2.13-1.1,3.49-3.27,3.49-5.64v-1.09c2.44.47,5.15.16,7.2-.88.39-.17.74-.46,1.02-.73,5,2.46,12.2,2.45,17.16-.08,2.16-1.09,3.5-3.25,3.5-5.63v-5.64c0-2.38-1.33-4.55-3.5-5.63M497.44,39.26c0,.72-.39,1.31-1.04,1.64-3.65,1.87-9.39,1.87-13.04,0-.63-.33-1.04-.92-1.04-1.64v-5.64c0-.7.41-1.32,1.04-1.63,3.65-1.87,9.39-1.87,13.04,0,.65.31,1.04.93,1.04,1.63v5.64ZM526.31,39.26c0,.72-.36,1.31-1.01,1.64-3.65,1.87-9.39,1.87-13.05,0-.64-.33-1.03-.92-1.03-1.64v-5.64c0-.7.39-1.32,1.03-1.63,3.66-1.87,9.4-1.87,13.05,0,.65.31,1.01.93,1.01,1.63v5.64ZM423.74,51.64c-.94-.47-2.33-.47-3.27,0-.41.21-.66.62-.66,1.08v1.06c0,.46.25.87.66,1.07.95.47,2.33.47,3.27,0,.41-.2.67-.61.67-1.07v-1.06c0-.47-.26-.87-.67-1.08M472.84,27.5h-4.02c-.16,0-.29.1-.29.26v12.44c0,.47-.26.92-.7,1.15-2.56,1.27-6.54,1.27-9.07,0-.46-.22-.73-.68-.73-1.15v-12.44c0-.16-.12-.26-.28-.26h-4.02c-.16,0-.3.1-.3.26v12.44c0,.47-.27.92-.72,1.15-2.53,1.27-6.52,1.27-9.06,0-.42-.22-.69-.68-.69-1.15l-.03-23.36c0-.08-.02-.15-.1-.22-.03-.05-.1-.05-.2-.05-.03,0-.07,0-.09,0l-3.87,1.88c-.07.02-.12.05-.18.13-.1.1-.16.23-.16.39l.03,21.23c0,.47-.28.92-.72,1.15-2.53,1.27-6.53,1.27-9.06,0-.44-.22-.72-.68-.72-1.15v-12.44c0-.16-.14-.26-.28-.26h-4.02c-.16,0-.3.1-.3.26v12.44c0,.47-.25.92-.72,1.15-2.52,1.27-6.51,1.27-9.03,0-.41-.21-.67-.57-.72-.97v-12.61c0-.16-.15-.26-.3-.26h-4.03c-.17,0-.27.1-.27.26v12.44c0,.47-.28.92-.71,1.15-2.55,1.27-6.55,1.27-9.09,0-.44-.22-.69-.68-.69-1.15v-12.44c0-.16-.14-.26-.31-.26h-4.02c-.16,0-.3.1-.3.26v12.44c0,.47-.26.92-.69,1.15-2.56,1.27-6.53,1.27-9.06,0-.47-.22-.71-.68-.71-1.15l-.02-12.44c0-.16-.13-.26-.29-.26h-4.04c-.16,0-.27.1-.27.26l.03,19.92c0,.71-.4,1.32-1.02,1.65-.06.03-.13.06-.19.09-3.66,1.41-9.24,1.38-12.82-.08-.63-.25-1.04-.75-1.04-1.31v-4.52c0-.06,0-.03-.01,0h-4.57v4.52c0,.47.07.9.19,1.3h0c.03.11.07.23.11.33.51,1.55,1.61,2.86,3.15,3.65,5.02,2.54,12.29,2.54,17.31,0,1.47-.76,2.55-2,3.1-3.47.28-.57.44-1.18.44-1.81l-.04-.75v-1.31c3.89,1.31,8.74,1.05,12.26-.71.17-.09.34-.21.53-.33.16.12.35.24.52.33,4.04,2.07,9.97,2.07,14.01,0,.18-.09.37-.21.54-.32.18.11.34.23.55.32,4.05,2.07,9.93,2.07,14.01,0,.18-.09.37-.21.53-.32.16.11.34.23.53.32,4.07,2.07,9.96,2.07,14.03,0,.19-.09.37-.21.53-.32.18.11.34.23.52.32,4.08,2.07,9.97,2.07,14.02,0,.21-.09.37-.21.56-.33.15.12.35.24.52.33,4.04,2.07,9.95,2.07,14.01,0,1.76-.9,2.86-2.65,2.86-4.56v-12.93c0-.16-.14-.26-.31-.26M460.83,51.64c-.95-.47-2.32-.47-3.3,0-.41.21-.64.62-.64,1.08v1.06c0,.46.23.87.64,1.07.98.47,2.34.47,3.3,0,.41-.2.64-.61.64-1.07v-1.06c0-.47-.23-.87-.64-1.08M472.45,51.64c-.94-.47-2.32-.47-3.27,0-.39.21-.66.62-.66,1.08v1.06c0,.46.27.87.66,1.07.94.47,2.32.47,3.27,0,.41-.2.7-.61.7-1.07v-1.06c0-.47-.28-.87-.7-1.08"/>
        <path class="st2" d="M528.94,20.74c1.1,0,1.96.85,1.96,1.94s-.87,1.96-1.98,1.96-1.98-.85-1.98-1.96.88-1.94,1.98-1.94h.01ZM528.92,21.09c-.88,0-1.55.72-1.55,1.59s.67,1.61,1.57,1.61c.88.01,1.52-.71,1.52-1.6s-.65-1.6-1.54-1.6h-.01ZM528.58,23.75h-.38v-2.03c.21-.04.43-.06.71-.06.34,0,.51.06.65.16.12.09.21.25.21.43,0,.26-.18.42-.4.49v.02c.19.07.28.23.34.48.06.32.1.44.15.51h-.39c-.06-.07-.11-.26-.16-.54-.05-.22-.18-.31-.48-.31h-.24v.85ZM528.58,22.61h.25c.28,0,.52-.09.52-.33,0-.2-.12-.33-.48-.33-.15,0-.24.01-.29.03v.63Z"/>
      </g>
    </g>
  </g>
  <g>
    <path class="st3" d="M359.51,92.38c0,.99-.16,1.84-.48,2.54-.32.7-.76,1.28-1.31,1.73-.56.45-1.22.78-1.98.99-.76.21-1.57.32-2.44.32s-1.66-.11-2.42-.32c-.76-.21-1.43-.54-2-.99-.57-.45-1.03-1.03-1.36-1.75-.33-.72-.5-1.57-.5-2.57,0-.79.12-1.59.36-2.4.24-.81.57-1.57.99-2.28.06-.09.19-.12.37-.07l2.65.83c.08.03.13.08.13.13,0,.05,0,.11-.04.18-.23.44-.44.94-.64,1.49-.2.55-.29,1.18-.29,1.87,0,.55.08,1.02.24,1.4s.38.69.65.92c.27.24.57.41.91.51.33.1.67.15,1.02.15.83,0,1.49-.23,1.96-.69.47-.46.71-1.17.71-2.13v-15.19c0-.16.08-.24.24-.24h2.97c.16,0,.24.08.24.24v11.71c.03.39.21.71.53.93.32.23.77.34,1.34.34h.56c.33,0,.57.11.74.33.16.22.24.58.24,1.09,0,.96-.33,1.44-.98,1.44-.52,0-.98-.04-1.37-.13s-.74-.29-1.06-.6v.21Z"/>
    <path class="st3" d="M367.19,91.72c-.28.49-.66.81-1.15.96s-1.18.22-2.06.22h-1.96c-.33,0-.57-.05-.74-.15-.16-.1-.24-.33-.24-.67,0-.2.02-.43.05-.66s.09-.46.17-.66.19-.38.32-.51c.13-.13.29-.2.49-.2h.81c.51,0,.83-.14.97-.41.14-.28.21-.77.21-1.48v-4.97c0-.13.12-.2.36-.21.24-.01.45-.02.63-.02h2.26c.16,0,.24.08.24.24v5.59c.03.39.21.71.53.93.32.23.77.34,1.34.34h.56c.33,0,.57.11.74.33.16.22.24.58.24,1.09,0,.96-.33,1.44-.98,1.44s-1.16-.07-1.62-.21c-.46-.14-.84-.47-1.15-.97ZM364.25,97.73c-.16,0-.24-.08-.24-.24v-2.32c0-.16.08-.24.24-.24h3.04c.16,0,.24.08.24.24v2.32c0,.16-.08.24-.24.24h-3.04Z"/>
    <path class="st3" d="M376.76,82.54c.83,0,1.59.09,2.26.27.67.18,1.24.44,1.72.78s.84.76,1.09,1.27.38,1.09.38,1.75c0,.74-.18,1.41-.54,2-.36.59-.82,1.08-1.37,1.45.13-.01.27-.02.4-.02h2.91c.33,0,.57.1.74.3.16.2.24.57.24,1.13s-.08.91-.23,1.12c-.15.21-.4.32-.75.32h-3.66c-.59,0-1.15-.02-1.67-.07-.52-.05-1.02-.21-1.5-.5-.54.28-1.12.45-1.73.5s-1.16.07-1.63.07h-3.56c-.34,0-.59-.11-.75-.33-.15-.22-.23-.6-.23-1.14,0-.5.08-.86.23-1.08.15-.21.4-.32.75-.32h3.34c-.56-.36-1.01-.84-1.36-1.43-.35-.59-.53-1.26-.53-2,0-.66.13-1.24.38-1.75s.62-.93,1.09-1.27,1.05-.6,1.72-.78c.67-.18,1.42-.27,2.26-.27ZM373.7,80.55c-.16,0-.24-.08-.24-.24v-2.32c0-.16.08-.24.24-.24h2.45c.16,0,.25.08.25.24v2.32c0,.16-.08.24-.25.24h-2.45ZM376.76,84.88c-.52,0-.99.16-1.39.47-.4.31-.6.82-.6,1.51s.2,1.31.59,1.74c.39.43.86.78,1.4,1.03.54-.25,1.01-.6,1.4-1.03.39-.43.59-1.01.59-1.74s-.21-1.2-.61-1.51c-.41-.32-.87-.47-1.37-.47ZM377.47,80.55c-.16,0-.24-.08-.24-.24v-2.32c0-.16.08-.24.24-.24h2.48c.16,0,.24.08.24.24v2.32c0,.16-.08.24-.24.24h-2.48Z"/>
    <path class="st3" d="M386.38,83.18c0-.16.08-.24.24-.24h2.97c.16,0,.24.08.24.24v5.59c.03.39.21.71.53.93.32.23.76.34,1.34.34h.56c.33,0,.57.11.74.33s.24.58.24,1.09c0,.96-.33,1.44-.98,1.44s-1.16-.07-1.62-.21c-.46-.14-.84-.47-1.15-.97-.26.51-.65.83-1.16.97-.52.14-1.22.21-2.12.21h-2.53c-.33,0-.57-.1-.74-.3-.16-.2-.24-.56-.24-1.1s.08-.92.23-1.14c.16-.22.4-.33.75-.33h1.52c.52,0,.85-.15.98-.44s.2-.79.2-1.5v-4.92ZM384.96,80.55c-.16,0-.25-.08-.25-.24v-2.32c0-.16.08-.24.25-.24h2.45c.16,0,.24.08.24.24v2.32c0,.16-.08.24-.24.24h-2.45ZM388.74,80.55c-.16,0-.24-.08-.24-.24v-2.32c0-.16.08-.24.24-.24h2.48c.16,0,.25.08.25.24v2.32c0,.16-.08.24-.25.24h-2.48Z"/>
    <path class="st3" d="M407.06,92.9c-.64,0-1.16-.11-1.56-.34-.4-.23-.71-.53-.92-.91-.23.49-.58.82-1.04.99-.47.17-1.1.26-1.9.26h-.96c-.64,0-1.16-.11-1.57-.34-.41-.23-.72-.53-.93-.91-.23.51-.57.84-1.03,1.01-.46.17-1.11.25-1.94.25h-2.94c-.33,0-.57-.09-.74-.27-.16-.18-.24-.53-.24-1.05,0-.55.08-.95.23-1.18.15-.24.4-.35.75-.35h1.64c.47,0,.78-.11.91-.34.13-.23.2-.65.2-1.27v-3.55c0-.16.08-.24.25-.24h2.99c.16,0,.24.08.24.24v3.88c0,.51.16.84.49,1.02.33.17.69.26,1.08.26.31,0,.56-.03.75-.1.19-.06.32-.16.4-.28s.14-.3.16-.51.04-.48.04-.79v-3.48c0-.16.08-.24.24-.24h2.99c.16,0,.25.08.25.24v3.86c0,.54.17.89.5,1.05.33.17.71.25,1.14.25.31,0,.55-.03.71-.1.16-.06.29-.16.37-.3.08-.13.13-.31.15-.52s.03-.48.03-.79v-5.16c0-.16.08-.24.24-.24h2.99c.16,0,.25.08.25.24v5.59c.03.39.21.71.53.93.32.23.77.34,1.34.34h.56c.33,0,.57.11.74.33s.25.58.25,1.09c0,.96-.33,1.44-.98,1.44-.62,0-1.16-.07-1.62-.21-.46-.14-.84-.47-1.15-.97-.23.46-.56.77-1.01.93s-.95.25-1.52.25h-1.35Z"/>
    <path class="st3" d="M421.34,93.07c-.87,0-1.66-.11-2.39-.32-.73-.21-1.34-.59-1.83-1.12-.18.28-.42.51-.71.69-.29.17-.6.31-.92.39-.32.09-.63.14-.94.17-.31.02-.59.04-.83.04-.33,0-.57-.1-.74-.31-.16-.2-.24-.57-.24-1.09s.07-.92.22-1.14c.15-.22.4-.33.76-.33h.71c.38,0,.72-.15,1.02-.45s.47-.86.5-1.68v-.47c0-1.58.47-2.79,1.4-3.63.93-.84,2.26-1.27,4-1.27s2.97.45,3.95,1.34c.98.89,1.47,2.24,1.47,4.03,0,.11,0,.22-.01.32,0,.1-.01.2-.01.3.03.52.19.9.47,1.15.28.24.63.37,1.05.37h.71c.33,0,.57.11.74.33.16.22.24.58.24,1.09,0,.96-.33,1.44-.98,1.44-.29,0-.6-.01-.91-.04-.31-.02-.61-.08-.91-.18s-.57-.23-.83-.41c-.26-.18-.49-.43-.69-.75-.49.57-1.11.97-1.85,1.2-.74.23-1.56.34-2.44.34ZM421.34,85.4c-1.34,0-2.01.8-2.01,2.39,0,.9.17,1.53.5,1.88.33.36.84.53,1.51.53s1.19-.18,1.52-.53c.33-.35.49-.98.49-1.88,0-1.59-.67-2.39-2.01-2.39Z"/>
    <path class="st3" d="M428.95,92.9c-.33,0-.57-.06-.74-.17s-.24-.33-.24-.66c0-.19.02-.4.06-.64.04-.24.1-.46.17-.66s.17-.38.29-.52c.12-.14.27-.21.45-.21h.86c.41,0,.71-.09.9-.27.19-.18.28-.51.28-.98v-11.74c0-.16.08-.24.24-.24h2.99c.16,0,.24.08.24.24v12.87c0,1.02-.22,1.78-.66,2.26s-1.18.72-2.21.72h-2.65Z"/>
    <path class="st3" d="M440.87,92.67c0,.16-.08.24-.25.24h-2.97c-.16,0-.24-.08-.24-.24v-15.62c0-.16.08-.24.24-.24h2.97c.16,0,.25.08.25.24v15.62Z"/>
    <path class="st3" d="M453.9,97.75c-1.6,0-2.85-.26-3.74-.79-.89-.53-1.34-1.43-1.34-2.71,0-.65.11-1.2.33-1.66.22-.46.52-.85.91-1.17.38-.32.82-.58,1.32-.78.5-.2,1.02-.35,1.56-.46-.61-1.5-1.58-2.66-2.92-3.5-.15-.1-.24-.2-.28-.32s-.06-.31-.06-.58v-1.54c0-.19.15-.38.47-.58s.73-.38,1.26-.54c.53-.17,1.15-.3,1.84-.41.7-.11,1.43-.17,2.2-.17,1,0,1.86.09,2.59.27.73.18,1.33.44,1.8.77s.82.72,1.04,1.17c.22.45.33.93.33,1.45,0,.43-.07.82-.21,1.2-.14.37-.32.72-.54,1.04-.22.32-.47.61-.74.88-.27.26-.54.49-.82.67.15.02.3.03.47.04.16,0,.32.01.47.01h2.63c.65,0,.98.47.98,1.4,0,.54-.08.92-.23,1.14-.16.22-.41.33-.75.33h-3.88c-.47,0-.98-.06-1.52-.17-.54-.11-1.02-.3-1.45-.57-.44.14-.86.27-1.25.38-.39.11-.74.22-1.03.34s-.53.26-.71.43c-.18.17-.27.38-.27.65,0,.35.15.59.45.72.3.13.87.2,1.71.2h1.82c.16,0,.24.08.24.24v2.39c0,.16-.08.24-.24.24h-2.43ZM455.72,89.47c.54-.32.99-.7,1.36-1.16.37-.46.55-.94.55-1.44s-.19-.88-.58-1.11c-.39-.24-.92-.35-1.61-.35-.56,0-1.05.05-1.47.15-.43.1-.71.19-.86.27.67.44,1.23.99,1.67,1.64.44.66.75,1.32.93,2Z"/>
    <path class="st3" d="M467.71,91.72c-.28.49-.66.81-1.15.96s-1.18.22-2.06.22h-1.96c-.33,0-.57-.05-.74-.15-.16-.1-.24-.33-.24-.67,0-.2.02-.43.05-.66s.09-.46.17-.66.19-.38.32-.51c.13-.13.29-.2.49-.2h.81c.51,0,.83-.14.97-.41.14-.28.21-.77.21-1.48v-4.97c0-.13.12-.2.36-.21.24-.01.45-.02.63-.02h2.26c.16,0,.24.08.24.24v5.59c.03.39.21.71.53.93.32.23.77.34,1.34.34h.56c.33,0,.57.11.74.33.16.22.24.58.24,1.09,0,.96-.33,1.44-.98,1.44s-1.16-.07-1.62-.21c-.46-.14-.84-.47-1.15-.97ZM464.79,80.55c-.16,0-.24-.08-.24-.24v-2.32c0-.16.08-.24.24-.24h3.04c.16,0,.25.08.25.24v2.32c0,.16-.08.24-.25.24h-3.04Z"/>
    <path class="st3" d="M472.38,82.99c0-.16.08-.24.24-.24h2.97c.16,0,.25.08.25.24v.71c.75-.32,1.57-.59,2.45-.82.88-.23,1.81-.34,2.77-.34,2,0,3.51.46,4.54,1.37,1.03.92,1.55,2.36,1.55,4.33v.28c0,.1,0,.18-.02.26.03.38.21.68.54.91.33.23.78.34,1.35.34h.54c.33,0,.57.11.74.33s.24.58.24,1.09c0,.96-.33,1.44-.98,1.44-.7,0-1.31-.1-1.83-.3-.52-.2-.92-.6-1.21-1.2-.36.6-.88,1-1.56,1.2-.68.2-1.58.3-2.71.3h-4.74c-.24,0-.5,0-.77-.01-.27,0-.53-.03-.77-.06-.25-.03-.47-.08-.66-.14-.2-.06-.33-.16-.42-.28-.28.22-.6.36-.96.41-.36.06-.81.08-1.35.08h-2.18c-.33,0-.57-.1-.74-.3-.16-.2-.24-.57-.24-1.13,0-.6.07-.99.22-1.17.15-.18.4-.27.76-.27h.98c.25,0,.44-.05.58-.15.14-.1.24-.24.3-.41.06-.17.09-.39.11-.64.02-.25.03-.53.03-.83v-5.02ZM480.4,85.4c-.82,0-1.62.11-2.42.33-.79.22-1.51.46-2.15.73v2.65c0,.17,0,.34-.01.49s-.02.3-.04.44h4.86c.61,0,1.1-.02,1.48-.05s.68-.11.9-.24.36-.32.43-.59c.07-.27.11-.64.11-1.11,0-.43-.05-.81-.15-1.14-.1-.33-.27-.61-.5-.84s-.56-.4-.97-.51c-.41-.11-.92-.17-1.55-.17Z"/>
    <path class="st3" d="M489.62,92.9c-.33,0-.57-.06-.74-.17-.16-.11-.24-.33-.24-.66,0-.19.02-.4.06-.64.04-.24.1-.46.17-.66s.17-.38.29-.52c.12-.14.28-.21.45-.21h.86c.41,0,.71-.09.9-.27s.28-.51.28-.98v-5.61c0-.16.08-.24.24-.24h2.99c.16,0,.24.08.24.24v6.75c0,1.02-.22,1.78-.66,2.26-.44.48-1.18.72-2.21.72h-2.65ZM491.88,80.55c-.16,0-.24-.08-.24-.24v-2.32c0-.16.08-.24.24-.24h3.04c.16,0,.25.08.25.24v2.32c0,.16-.08.24-.25.24h-3.04Z"/>
    <path class="st3" d="M506.85,92.67c0,.16-.08.24-.24.24h-2.72c-.16,0-.24-.08-.24-.24v-2.82c0-.19.06-.35.2-.5l2.38-2.13c.13-.13.26-.19.39-.19.16,0,.24.09.24.26v5.37Z"/>
    <path class="st3" d="M509.79,77.05c0-.16.08-.24.24-.24h2.97c.16,0,.25.08.25.24v11.74c0,.47.09.8.28.98.19.18.49.27.9.27h.66c.33,0,.57.11.74.34.16.23.24.61.24,1.15,0,.57-.08.94-.23,1.11-.16.17-.4.26-.75.26h-2.43c-1.03,0-1.77-.24-2.21-.72-.44-.48-.66-1.23-.66-2.26v-12.87Z"/>
    <path class="st3" d="M522.13,82.54c1,0,1.86.09,2.59.27.73.18,1.33.44,1.8.77.47.33.82.72,1.04,1.17.22.45.33.93.33,1.45,0,.43-.07.83-.21,1.21s-.32.73-.55,1.05c-.23.32-.49.61-.77.88-.29.26-.57.49-.85.67.18.02.36.02.55.02h3.15c.33,0,.56.11.71.32.15.21.22.57.22,1.08,0,.58-.09.97-.26,1.17-.17.2-.4.3-.67.3h-3.9c-.59,0-1.15-.05-1.68-.15-.53-.1-1.04-.3-1.51-.58-.54.28-1.11.48-1.72.58-.61.1-1.14.15-1.62.15h-3.7c-.33,0-.56-.09-.71-.26-.15-.17-.22-.54-.22-1.11,0-.44.06-.8.18-1.08.12-.28.37-.41.75-.41h2.58c.28,0,.58,0,.9-.02.32-.01.63-.06.92-.14-.23-.66-.6-1.26-1.1-1.79-.51-.53-1.06-1-1.67-1.41-.13-.1-.22-.21-.27-.34-.05-.13-.07-.32-.07-.56v-1.54c0-.2.17-.41.52-.6.34-.2.79-.38,1.34-.54.55-.17,1.16-.3,1.85-.4.69-.1,1.38-.15,2.06-.15ZM522.4,89.47c.54-.32.99-.7,1.36-1.16.37-.46.55-.94.55-1.44s-.19-.88-.58-1.11c-.38-.24-.92-.35-1.61-.35-.56,0-1.05.05-1.47.15-.43.1-.71.19-.86.27.67.44,1.23.99,1.67,1.64.44.66.75,1.32.93,2Z"/>
    <path class="st3" d="M536.85,93.07c-.87,0-1.66-.11-2.39-.32-.73-.21-1.34-.59-1.83-1.12-.23.31-.49.56-.8.72s-.61.29-.92.38c-.31.09-.61.14-.91.15-.29.01-.56.02-.79.02-.33,0-.57-.1-.74-.31-.16-.2-.24-.57-.24-1.09,0-.55.08-.93.23-1.15s.4-.32.75-.32h.71c.36,0,.7-.15,1.01-.45.31-.3.48-.86.52-1.68v-.47c0-.93.15-1.71.45-2.34s.7-1.14,1.2-1.52c.5-.38,1.07-.65,1.72-.8.65-.16,1.32-.24,2.02-.24s1.41.09,2.06.26,1.23.47,1.73.88c.5.41.9.96,1.19,1.64s.44,1.55.44,2.59c0,.96-.14,1.77-.42,2.44-.28.66-.66,1.19-1.14,1.6-.48.4-1.06.69-1.72.86-.66.17-1.38.26-2.15.26ZM536.85,85.4c-1.36,0-2.04.8-2.04,2.39,0,.9.17,1.53.52,1.88.34.36.85.53,1.52.53s1.19-.18,1.52-.53c.33-.35.49-.98.49-1.88,0-1.59-.67-2.39-2.01-2.39Z"/>
  </g>
</svg>